<?xml version="1.0" encoding="UTF-8" standalone="no"?><!DOCTYPE svg PUBLIC "-//W3C//DTD SVG 1.1//EN" "http://www.w3.org/Graphics/SVG/1.1/DTD/svg11.dtd"><svg width="100%" height="100%" viewBox="0 0 2146 1134" version="1.1" xmlns="http://www.w3.org/2000/svg" xmlns:xlink="http://www.w3.org/1999/xlink" xml:space="preserve" xmlns:serif="http://www.serif.com/" style="fill-rule:evenodd;clip-rule:evenodd;stroke-linecap:round;stroke-linejoin:round;stroke-miterlimit:1.5;"><g><g><path d="M113.997,423.143c7.758,-18.474 152.565,-29.376 152.565,-29.376l-0.947,440.64c-0,0 -129.803,32.224 -161.094,-2.843c-31.291,-35.066 -28.231,-139.485 -26.652,-207.555c1.578,-68.011 16.916,-155.122 36.128,-200.866Z" style="fill:#ed2124;"/><clipPath id="_clip1"><path d="M113.997,423.143c7.758,-18.474 152.565,-29.376 152.565,-29.376l-0.947,440.64c-0,0 -129.803,32.224 -161.094,-2.843c-31.291,-35.066 -28.231,-139.485 -26.652,-207.555c1.578,-68.011 16.916,-155.122 36.128,-200.866Z"/></clipPath><g clip-path="url(#_clip1)"><path d="M13.55,533.066c-0,0 85.917,-37.746 126.98,-45.485c39.112,-7.372 119.399,-0.948 119.399,-0.948l-26.533,470.964l-235.008,-23.691l15.162,-400.84Z" style="fill:#ce2026;"/></g><path d="M113.997,423.143c7.758,-18.474 152.565,-29.376 152.565,-29.376l-0.947,440.64c-0,0 -129.803,32.224 -161.094,-2.843c-31.291,-35.066 -28.231,-139.485 -26.652,-207.555c1.578,-68.011 16.916,-155.122 36.128,-200.866Z" style="fill:none;stroke:#000;stroke-width:57.79px;"/><path d="M655.084,986.745c-0,0 57.488,-322.978 54.961,-450.116c-2.122,-106.805 -20.076,-245.359 -70.123,-312.712c-50.697,-68.228 -171.239,-104.75 -241.641,-77.704c-105.659,40.589 -140.673,164.004 -163.937,265.331c-52.435,228.375 14.214,576.149 14.214,576.149c-0,0 58.181,17.439 87.712,16.968c49.433,-0.79 89.491,-16.02 89.491,-16.02c0,-0 -0.972,-46.057 0.425,-69.022c1.421,-23.375 8.104,-71.225 8.104,-71.225l75.809,-0l18.005,143.089c-0,0 30.277,6.729 69.754,4.691c35.422,-1.829 57.226,-9.429 57.226,-9.429Z" style="fill:#ed2124;"/><clipPath id="_clip2"><path d="M655.084,986.745c-0,0 57.488,-322.978 54.961,-450.116c-2.122,-106.805 -20.076,-245.359 -70.123,-312.712c-50.697,-68.228 -171.239,-104.75 -241.641,-77.704c-105.659,40.589 -140.673,164.004 -163.937,265.331c-52.435,228.375 14.214,576.149 14.214,576.149c-0,0 58.181,17.439 87.712,16.968c49.433,-0.79 89.491,-16.02 89.491,-16.02c0,-0 -0.972,-46.057 0.425,-69.022c1.421,-23.375 8.104,-71.225 8.104,-71.225l75.809,-0l18.005,143.089c-0,0 30.277,6.729 69.754,4.691c35.422,-1.829 57.226,-9.429 57.226,-9.429Z"/></clipPath><g clip-path="url(#_clip2)"><path d="M713.836,575.709c-0,-0 -23.375,153.987 -136.456,180.046c-67.824,15.63 -193.729,-1.454 -235.956,-72.018c-96.025,-160.463 -26.533,-521.188 -26.533,-521.188l-117.504,143.09l-4.738,728.714l613.105,28.429l-91.918,-487.073Z" style="fill:#ce2026;"/></g><path d="M655.084,986.745c-0,0 57.488,-322.978 54.961,-450.116c-2.122,-106.805 -20.076,-245.359 -70.123,-312.712c-50.697,-68.228 -171.239,-104.75 -241.641,-77.704c-105.659,40.589 -140.673,164.004 -163.937,265.331c-52.435,228.375 14.214,576.149 14.214,576.149c-0,0 58.181,17.439 87.712,16.968c49.433,-0.79 89.491,-16.02 89.491,-16.02c0,-0 -0.972,-46.057 0.425,-69.022c1.421,-23.375 8.104,-71.225 8.104,-71.225l75.809,-0l18.005,143.089c-0,0 30.277,6.729 69.754,4.691c35.422,-1.829 57.226,-9.429 57.226,-9.429Z" style="fill:none;stroke:#000;stroke-width:57.79px;"/><path d="M397.222,310.853c28.625,-33.235 125.58,-35.58 179.03,-33.477c49.622,1.952 115.877,11.968 141.672,46.092c25.796,34.124 43.613,120.123 13.1,158.653c-29.79,37.618 -90.991,50.301 -140.701,49.488c-54.421,-0.889 -153.64,-18.032 -185.824,-54.825c-32.183,-36.793 -35.903,-132.696 -7.277,-165.931Z" style="fill:#4b646d;"/><clipPath id="_clip3"><path d="M397.222,310.853c28.625,-33.235 125.58,-35.58 179.03,-33.477c49.622,1.952 115.877,11.968 141.672,46.092c25.796,34.124 43.613,120.123 13.1,158.653c-29.79,37.618 -90.991,50.301 -140.701,49.488c-54.421,-0.889 -153.64,-18.032 -185.824,-54.825c-32.183,-36.793 -35.903,-132.696 -7.277,-165.931Z"/></clipPath><g clip-path="url(#_clip3)"><path d="M419.548,264.519c-0,-0 17.992,124.529 56.401,152.831c38.41,28.302 121.194,25.269 174.058,16.981c52.002,-8.153 143.128,-66.712 143.128,-66.712l-57.615,-173.451l-315.972,70.351Z" style="fill:#9ac7dc;"/><path d="M523.861,337.295c-0.901,-11.824 27.998,-24.381 80.661,-21.226c48.152,2.884 74.371,22.75 78.235,33.962c9.299,26.988 -13.931,37.476 -49.125,34.569c-96.588,-7.977 -108.963,-36.691 -109.771,-47.305Z" style="fill:#fdfefe;"/></g><path d="M397.222,310.853c28.625,-33.235 125.58,-35.58 179.03,-33.477c49.622,1.952 115.877,11.968 141.672,46.092c25.796,34.124 43.613,120.123 13.1,158.653c-29.79,37.618 -90.991,50.301 -140.701,49.488c-54.421,-0.889 -153.64,-18.032 -185.824,-54.825c-32.183,-36.793 -35.903,-132.696 -7.277,-165.931Z" style="fill:none;stroke:#000;stroke-width:57.79px;"/></g><path d="M1591.12,146.675l-50.408,846.643l504.077,4.115c-0,0 10.955,-19.866 18.878,-56.715c7.633,-35.501 4.782,-60.56 4.782,-60.56l-391.945,2.058l39.092,-736.569c-0,-0 -46.158,-9.57 -73.06,-8.638c-32.919,1.14 -51.416,9.666 -51.416,9.666Z" style="fill:#ed2124;"/><clipPath id="_clip4"><path d="M1591.12,146.675l-50.408,846.643l504.077,4.115c-0,0 10.955,-19.866 18.878,-56.715c7.633,-35.501 4.782,-60.56 4.782,-60.56l-391.945,2.058l39.092,-736.569c-0,-0 -46.158,-9.57 -73.06,-8.638c-32.919,1.14 -51.416,9.666 -51.416,9.666Z"/></clipPath><g clip-path="url(#_clip4)"><path d="M1594.21,367.852c-0,-0 -5.692,411.045 5.144,505.105c3.213,27.895 20.86,53.241 59.871,59.255c48.953,7.546 213.488,6.925 316.027,8.358c79.185,1.106 156.982,-13.09 156.982,-13.09l-92.585,130.648l-554.484,-22.632l17.488,-594.604" style="fill:#ce2026;"/></g><path d="M1591.12,146.675l-50.408,846.643l504.077,4.115c-0,0 10.955,-19.866 18.878,-56.715c7.633,-35.501 4.782,-60.56 4.782,-60.56l-391.945,2.058l39.092,-736.569c-0,-0 -46.158,-9.57 -73.06,-8.638c-32.919,1.14 -51.416,9.666 -51.416,9.666Z" style="fill:none;stroke:#000;stroke-width:57.79px;"/></g><path d="M862.671,996.282l11.236,-868.941c0,-0 110.236,-18.093 157.308,-14.982c72.412,4.786 210.281,20.091 262.181,126.096c73.015,149.133 -124.848,284.653 -124.848,284.653l273.417,463.186c-0,-0 -26.757,14.583 -69.128,17.536c-50.364,3.511 -94.423,-17.536 -94.423,-17.536l-262.58,-441.162l-5.543,447.854c-0,-0 -41.234,13.657 -66.592,14.698c-43.787,1.797 -81.028,-11.402 -81.028,-11.402Zm137.176,-750.322l4.475,129.122c-0,0 120.08,17.297 136.471,-65.5c17.308,-87.427 -140.946,-63.622 -140.946,-63.622Z" style="fill:#ed2124;"/><clipPath id="_clip5"><path d="M862.671,996.282l11.236,-868.941c0,-0 110.236,-18.093 157.308,-14.982c72.412,4.786 210.281,20.091 262.181,126.096c73.015,149.133 -124.848,284.653 -124.848,284.653l273.417,463.186c-0,-0 -26.757,14.583 -69.128,17.536c-50.364,3.511 -94.423,-17.536 -94.423,-17.536l-262.58,-441.162l-5.543,447.854c-0,-0 -41.234,13.657 -66.592,14.698c-43.787,1.797 -81.028,-11.402 -81.028,-11.402Zm137.176,-750.322l4.475,129.122c-0,0 120.08,17.297 136.471,-65.5c17.308,-87.427 -140.946,-63.622 -140.946,-63.622Z"/></clipPath><g clip-path="url(#_clip5)"><path d="M810.415,214.139c22.485,-62.207 66.242,449.713 105.257,538.147c17.364,39.358 92.54,75.875 128.833,-7.543c14.221,-32.686 -48.378,-206.52 -3.121,-181.03c45.257,25.49 202.618,281.948 274.665,333.968c43.005,31.05 127.709,-59.042 157.62,-21.848c29.912,37.194 98.988,217.216 21.849,245.014c-115.484,41.616 -600.57,155.799 -714.754,4.681c-114.184,-151.117 7.167,-849.182 29.651,-911.389Z" style="fill:#ce2026;"/><path d="M973.039,238.107c-44.119,89.958 -38.331,165.094 -6.341,182.044c40.828,21.632 158.068,-13.02 182.999,-54.048c16.632,-27.372 28.081,-68.673 4.338,-85.875c-29.443,-21.333 -163.51,-77.774 -180.996,-42.121Z" style="fill:#ce2026;"/></g><path d="M862.671,996.282l11.236,-868.941c0,-0 110.236,-18.093 157.308,-14.982c72.412,4.786 210.281,20.091 262.181,126.096c73.015,149.133 -124.848,284.653 -124.848,284.653l273.417,463.186c-0,-0 -26.757,14.583 -69.128,17.536c-50.364,3.511 -94.423,-17.536 -94.423,-17.536l-262.58,-441.162l-5.543,447.854c-0,-0 -41.234,13.657 -66.592,14.698c-43.787,1.797 -81.028,-11.402 -81.028,-11.402Zm137.176,-750.322l4.475,129.122c-0,0 120.08,17.297 136.471,-65.5c17.308,-87.427 -140.946,-63.622 -140.946,-63.622Z" style="fill:none;stroke:#000;stroke-width:57.79px;"/><rect x="0" y="0" width="2145.82" height="1133.87" style="fill:none;"/></svg>