<?xml version="1.0" encoding="UTF-8" standalone="no"?>
<!DOCTYPE svg PUBLIC "-//W3C//DTD SVG 1.1//EN" "http://www.w3.org/Graphics/SVG/1.1/DTD/svg11.dtd">
<svg width="100%" height="100%" viewBox="0 0 2017 1816" version="1.1" xmlns="http://www.w3.org/2000/svg" xmlns:xlink="http://www.w3.org/1999/xlink" xml:space="preserve" xmlns:serif="http://www.serif.com/" style="fill-rule:evenodd;clip-rule:evenodd;stroke-linecap:round;stroke-linejoin:round;stroke-miterlimit:1.5;">
    <g transform="matrix(1,0,0,1,-126.298,110.585)">
        <g transform="matrix(1.29846,0,0,1.29846,-163.853,0.0298462)">
            <path d="M831,909.9C868.9,957.3 907.5,1016.9 927.7,1052.9C952.3,1099.7 962.5,1131.3 980.8,1187.9C991.5,1218.9 1001.7,1228.3 1023.1,1228.3C1046.5,1228.3 1057.2,1212.5 1065.4,1187.9C1082.5,1134.8 1095.7,1094.4 1116.6,1055.9C1197.2,903.9 1328.6,795.9 1402.6,647.9C1402.6,647.9 1451.3,557.5 1451.3,430.9C1451.3,312.9 1403.3,230.9 1403.3,230.9L831.3,910.9L831,909.9Z" style="fill:rgb(52,168,83);fill-rule:nonzero;"/>
        </g>
        <g transform="matrix(1.29846,0,0,1.29846,-163.853,0.0298462)">
            <path d="M637,631.9C683.1,736.9 771,828.9 831,909.9L1149,532.9C1149,532.9 1104.1,591.7 1023,591.7C932.6,591.7 859,519.7 859,428.7C859,366.1 896.3,322.7 896.3,322.7C662.3,357.5 675.3,414.2 636.3,631.7L637,631.9Z" style="fill:rgb(251,188,4);fill-rule:nonzero;"/>
        </g>
        <g transform="matrix(1.29846,0,0,1.29846,-163.853,0.0298462)">
            <path d="M1153,19.6C1259,53.7 1349,125.6 1403,230.6L1149,533.6C1149,533.6 1186.3,490 1186.3,427.6C1186.3,334.7 1107.9,264.6 1023.3,264.6C943,264.6 897.3,322.7 897.3,322.7C916.8,278.3 1118.3,34.7 1153.3,19.7L1153,19.6Z" style="fill:rgb(66,133,244);fill-rule:nonzero;"/>
        </g>
        <g transform="matrix(1.29846,0,0,1.29846,-163.853,0.0298462)">
            <path d="M695,152.9C758.2,77.7 869,-0.1 1022,-0.1C1095.9,-0.1 1152,19.5 1152,19.5L897,322.5C879.8,313.17 712,182.5 695,152.5L695,152.9Z" style="fill:rgb(26,115,232);fill-rule:nonzero;"/>
        </g>
        <g transform="matrix(1.29846,0,0,1.29846,-163.853,0.0298462)">
            <path d="M637,631.9C637,631.9 595.3,549.1 595.3,429.9C595.3,316.9 639.5,217.9 695.3,153.9L897.3,323.9L637.3,631.9L637,631.9Z" style="fill:rgb(234,67,53);fill-rule:nonzero;"/>
        </g>
        <g transform="matrix(1.5248,0,0,1.36317,-299.8,29.8843)">
            <path d="M1113.76,307.818L1113.76,461.653C1113.76,504.105 1082.94,538.571 1044.99,538.571L625.421,538.571C587.469,538.571 556.656,504.105 556.656,461.653L556.656,307.818C556.656,265.366 587.469,230.9 625.421,230.9L1044.99,230.9C1082.94,230.9 1113.76,265.366 1113.76,307.818Z" style="fill:rgb(123,199,193);stroke:black;stroke-width:27.61px;"/>
        </g>
        <g transform="matrix(1.20531,0,0,1.18227,-104.581,58.1521)">
            <path d="M1224.92,324.109L1224.92,441.529C1224.92,473.932 1199.11,500.239 1167.33,500.239L693.888,500.239C662.104,500.239 636.3,473.932 636.3,441.529L636.3,324.109C636.3,291.706 662.104,265.399 693.888,265.399L1167.33,265.399C1199.11,265.399 1224.92,291.706 1224.92,324.109Z" style="fill:rgb(168,224,219);"/>
        </g>
        <g transform="matrix(1.29846,0,0,1.29846,-163.853,0.0298462)">
            <path d="M1182.69,317.432L1182.69,379.47C1182.69,396.59 1168.79,410.489 1151.67,410.489L829.855,410.489C812.735,410.489 798.836,396.59 798.836,379.47L798.836,317.432C798.836,300.312 812.735,286.413 829.855,286.413L1151.67,286.413C1168.79,286.413 1182.69,300.312 1182.69,317.432Z" style="fill:rgb(219,240,238);"/>
        </g>
    </g>
    <g transform="matrix(44.8565,0,0,44.8565,-46362.7,-49991.7)">
        <path d="M1067.21,1131.48C1067.15,1131.61 1067.1,1131.75 1067.05,1131.89C1067.01,1132.04 1066.96,1132.18 1066.9,1132.34C1066.83,1132.55 1066.76,1132.77 1066.68,1132.98C1066.6,1133.19 1066.52,1133.39 1066.42,1133.57C1066.32,1133.75 1066.16,1133.96 1065.94,1134.2C1065.72,1134.44 1065.49,1134.64 1065.24,1134.82C1065.21,1134.85 1065.16,1134.88 1065.12,1134.9C1065.08,1134.93 1065.03,1134.96 1064.97,1134.99C1064.81,1135.09 1064.62,1135.21 1064.4,1135.37C1064.18,1135.52 1063.97,1135.72 1063.77,1135.97C1063.57,1136.21 1063.4,1136.53 1063.26,1136.9C1063.13,1137.28 1063.06,1137.73 1063.06,1138.27C1063.06,1138.94 1063.15,1139.5 1063.33,1139.96C1063.52,1140.42 1063.75,1140.8 1064.04,1141.09C1064.33,1141.38 1064.64,1141.61 1064.98,1141.77C1065.31,1141.93 1065.64,1142.05 1065.95,1142.12C1066.27,1142.18 1066.54,1142.22 1066.77,1142.23C1067,1142.25 1067.14,1142.25 1067.22,1142.25L1067.24,1142.25C1067.29,1142.25 1067.45,1142.25 1067.7,1142.26C1067.96,1142.26 1068.26,1142.26 1068.59,1142.27C1068.92,1142.28 1069.23,1142.28 1069.51,1142.29C1069.6,1142.31 1069.69,1142.32 1069.79,1142.32L1070.43,1142.32C1070.76,1142.32 1071.04,1142.2 1071.28,1141.97C1071.51,1141.74 1071.63,1141.46 1071.63,1141.12C1071.63,1140.91 1071.57,1140.71 1071.46,1140.52C1071.68,1140.43 1071.85,1140.28 1071.99,1140.09C1072.12,1139.89 1072.19,1139.67 1072.19,1139.42C1072.19,1139.22 1072.14,1139.04 1072.06,1138.88C1071.97,1138.71 1071.85,1138.57 1071.71,1138.46C1071.91,1138.37 1072.07,1138.24 1072.2,1138.05C1072.32,1137.87 1072.38,1137.67 1072.38,1137.44C1072.38,1137.18 1072.31,1136.96 1072.15,1136.77C1072,1136.57 1071.81,1136.44 1071.58,1136.37C1071.81,1136.13 1071.93,1135.85 1071.93,1135.51C1071.93,1135.17 1071.81,1134.89 1071.57,1134.65C1071.33,1134.41 1071.04,1134.29 1070.7,1134.29L1069.34,1134.29C1069.27,1134.29 1069.21,1134.29 1069.15,1134.3C1069.15,1134.29 1069.18,1134.21 1069.24,1134.05C1069.29,1133.88 1069.36,1133.69 1069.44,1133.47C1069.52,1133.24 1069.6,1133.03 1069.68,1132.82C1069.89,1132.26 1069.92,1131.8 1069.78,1131.42C1069.64,1131.04 1069.37,1130.78 1068.98,1130.65C1068.62,1130.53 1068.27,1130.54 1067.94,1130.69C1067.62,1130.85 1067.37,1131.11 1067.21,1131.48Z" style="fill:rgb(255,200,61);fill-rule:nonzero;"/>
        <path d="M1068.79,1142.28C1068.59,1142.2 1068.44,1142.06 1068.34,1141.88C1068.24,1141.69 1068.19,1141.49 1068.19,1141.29C1068.19,1141.21 1068.2,1141.12 1068.24,1141.01C1068.27,1140.89 1068.32,1140.79 1068.39,1140.68L1070.73,1140.68C1070.79,1140.68 1070.84,1140.66 1070.88,1140.62C1070.92,1140.58 1070.94,1140.53 1070.94,1140.47C1070.94,1140.41 1070.92,1140.36 1070.88,1140.32C1070.84,1140.28 1070.79,1140.26 1070.73,1140.26L1068.45,1140.26C1068.27,1140.04 1068.19,1139.77 1068.19,1139.46C1068.19,1139.38 1068.21,1139.27 1068.24,1139.14C1068.28,1139.01 1068.34,1138.88 1068.42,1138.75L1070.73,1138.75C1070.79,1138.75 1070.84,1138.73 1070.88,1138.69C1070.92,1138.65 1070.94,1138.6 1070.94,1138.54C1070.94,1138.48 1070.92,1138.43 1070.88,1138.39C1070.84,1138.35 1070.79,1138.33 1070.73,1138.33L1068.51,1138.33C1068.4,1138.22 1068.33,1138.08 1068.27,1137.92C1068.22,1137.77 1068.19,1137.61 1068.19,1137.46C1068.19,1137.38 1068.2,1137.29 1068.23,1137.18C1068.26,1137.07 1068.3,1136.96 1068.36,1136.85L1070.73,1136.85C1070.79,1136.85 1070.84,1136.83 1070.88,1136.8C1070.92,1136.75 1070.94,1136.7 1070.94,1136.64C1070.94,1136.58 1070.92,1136.54 1070.88,1136.5C1070.84,1136.45 1070.79,1136.43 1070.73,1136.43L1068.55,1136.43C1068.42,1136.31 1068.34,1136.16 1068.28,1135.99C1068.22,1135.82 1068.19,1135.66 1068.19,1135.52C1068.19,1135.4 1068.21,1135.25 1068.27,1135.08C1068.32,1134.9 1068.4,1134.74 1068.52,1134.6C1068.65,1134.45 1068.82,1134.36 1069.04,1134.33L1069.04,1134.32C1068.93,1134.32 1068.79,1134.34 1068.6,1134.38C1068.41,1134.42 1068.23,1134.49 1068.04,1134.58C1067.85,1134.67 1067.68,1134.8 1067.55,1134.95C1067.42,1135.12 1067.35,1135.32 1067.35,1135.58C1067.35,1135.84 1067.39,1136.05 1067.48,1136.2C1067.57,1136.36 1067.67,1136.48 1067.78,1136.56C1067.67,1136.62 1067.56,1136.73 1067.47,1136.91C1067.38,1137.09 1067.34,1137.3 1067.34,1137.55C1067.34,1137.73 1067.38,1137.89 1067.45,1138.03C1067.52,1138.17 1067.6,1138.28 1067.67,1138.37C1067.75,1138.44 1067.78,1138.48 1067.78,1138.48C1067.78,1138.48 1067.75,1138.53 1067.67,1138.62C1067.6,1138.7 1067.52,1138.82 1067.45,1138.96C1067.38,1139.11 1067.34,1139.27 1067.34,1139.44C1067.34,1139.64 1067.38,1139.81 1067.46,1139.96C1067.54,1140.1 1067.65,1140.22 1067.78,1140.32C1067.71,1140.37 1067.62,1140.46 1067.5,1140.61C1067.39,1140.75 1067.34,1140.95 1067.34,1141.19C1067.34,1141.44 1067.43,1141.66 1067.63,1141.86C1067.82,1142.06 1068.1,1142.19 1068.49,1142.27L1068.64,1142.27C1068.69,1142.27 1068.74,1142.28 1068.79,1142.28Z" style="fill:rgb(214,125,0);fill-rule:nonzero;"/>
    </g>
</svg>
