<?xml version="1.0" encoding="UTF-8" standalone="no"?>
<!DOCTYPE svg PUBLIC "-//W3C//DTD SVG 1.1//EN" "http://www.w3.org/Graphics/SVG/1.1/DTD/svg11.dtd">
<svg width="100%" height="100%" viewBox="0 0 2017 1816" version="1.1" xmlns="http://www.w3.org/2000/svg" xmlns:xlink="http://www.w3.org/1999/xlink" xml:space="preserve" xmlns:serif="http://www.serif.com/" style="fill-rule:evenodd;clip-rule:evenodd;stroke-linecap:round;stroke-linejoin:round;stroke-miterlimit:1.5;">
    <g transform="matrix(1,0,0,1,-126.298,110.585)">
        <g transform="matrix(1.29846,0,0,1.29846,-163.853,0.0298462)">
            <path d="M831,909.9C868.9,957.3 907.5,1016.9 927.7,1052.9C952.3,1099.7 962.5,1131.3 980.8,1187.9C991.5,1218.9 1001.7,1228.3 1023.1,1228.3C1046.5,1228.3 1057.2,1212.5 1065.4,1187.9C1082.5,1134.8 1095.7,1094.4 1116.6,1055.9C1197.2,903.9 1328.6,795.9 1402.6,647.9C1402.6,647.9 1451.3,557.5 1451.3,430.9C1451.3,312.9 1403.3,230.9 1403.3,230.9L831.3,910.9L831,909.9Z" style="fill:rgb(52,168,83);fill-rule:nonzero;"/>
        </g>
        <g transform="matrix(1.29846,0,0,1.29846,-163.853,0.0298462)">
            <path d="M637,631.9C683.1,736.9 771,828.9 831,909.9L1149,532.9C1149,532.9 1104.1,591.7 1023,591.7C932.6,591.7 859,519.7 859,428.7C859,366.1 896.3,322.7 896.3,322.7C662.3,357.5 675.3,414.2 636.3,631.7L637,631.9Z" style="fill:rgb(251,188,4);fill-rule:nonzero;"/>
        </g>
        <g transform="matrix(1.29846,0,0,1.29846,-163.853,0.0298462)">
            <path d="M1153,19.6C1259,53.7 1349,125.6 1403,230.6L1149,533.6C1149,533.6 1186.3,490 1186.3,427.6C1186.3,334.7 1107.9,264.6 1023.3,264.6C943,264.6 897.3,322.7 897.3,322.7C916.8,278.3 1118.3,34.7 1153.3,19.7L1153,19.6Z" style="fill:rgb(66,133,244);fill-rule:nonzero;"/>
        </g>
        <g transform="matrix(1.29846,0,0,1.29846,-163.853,0.0298462)">
            <path d="M695,152.9C758.2,77.7 869,-0.1 1022,-0.1C1095.9,-0.1 1152,19.5 1152,19.5L897,322.5C879.8,313.17 712,182.5 695,152.5L695,152.9Z" style="fill:rgb(26,115,232);fill-rule:nonzero;"/>
        </g>
        <g transform="matrix(1.29846,0,0,1.29846,-163.853,0.0298462)">
            <path d="M637,631.9C637,631.9 595.3,549.1 595.3,429.9C595.3,316.9 639.5,217.9 695.3,153.9L897.3,323.9L637.3,631.9L637,631.9Z" style="fill:rgb(234,67,53);fill-rule:nonzero;"/>
        </g>
        <g transform="matrix(1.5248,0,0,1.36317,-299.8,29.8843)">
            <path d="M1113.76,307.818L1113.76,461.653C1113.76,504.105 1082.94,538.571 1044.99,538.571L625.421,538.571C587.469,538.571 556.656,504.105 556.656,461.653L556.656,307.818C556.656,265.366 587.469,230.9 625.421,230.9L1044.99,230.9C1082.94,230.9 1113.76,265.366 1113.76,307.818Z" style="fill:rgb(123,199,193);stroke:black;stroke-width:27.61px;"/>
        </g>
        <g transform="matrix(1.20531,0,0,1.18227,-104.581,58.1521)">
            <path d="M1224.92,324.109L1224.92,441.529C1224.92,473.932 1199.11,500.239 1167.33,500.239L693.888,500.239C662.104,500.239 636.3,473.932 636.3,441.529L636.3,324.109C636.3,291.706 662.104,265.399 693.888,265.399L1167.33,265.399C1199.11,265.399 1224.92,291.706 1224.92,324.109Z" style="fill:rgb(168,224,219);"/>
        </g>
        <g transform="matrix(1.29846,0,0,1.29846,-163.853,0.0298462)">
            <path d="M1182.69,317.432L1182.69,379.47C1182.69,396.59 1168.79,410.489 1151.67,410.489L829.855,410.489C812.735,410.489 798.836,396.59 798.836,379.47L798.836,317.432C798.836,300.312 812.735,286.413 829.855,286.413L1151.67,286.413C1168.79,286.413 1182.69,300.312 1182.69,317.432Z" style="fill:rgb(219,240,238);"/>
        </g>
    </g>
    <g transform="matrix(1,0,0,1,-100.427,-121.386)">
        <path d="M1252,961.777C1252,961.777 1372.58,1128.92 1372.58,1200.56C1372.58,1267.11 1318.55,1321.14 1252,1321.14C1185.44,1321.14 1131.41,1267.11 1131.41,1200.56C1131.41,1128.92 1252,961.777 1252,961.777Z" style="fill:rgb(12,255,236);"/>
    </g>
</svg>
