<?xml version="1.0" encoding="UTF-8" standalone="no"?><!DOCTYPE svg PUBLIC "-//W3C//DTD SVG 1.1//EN" "http://www.w3.org/Graphics/SVG/1.1/DTD/svg11.dtd"><svg width="100%" height="100%" viewBox="0 0 2268 2268" version="1.1" xmlns="http://www.w3.org/2000/svg" xmlns:xlink="http://www.w3.org/1999/xlink" xml:space="preserve" xmlns:serif="http://www.serif.com/" style="fill-rule:evenodd;clip-rule:evenodd;stroke-linecap:round;stroke-linejoin:round;stroke-miterlimit:1.5;"><g id="Player_Tag"><path d="M1133.86,353.001c202.704,-0 608.112,513.155 608.112,953.603c-0,335.626 -272.486,608.112 -608.112,608.112c-335.626,-0 -608.111,-272.486 -608.111,-608.112c-0,-440.448 405.407,-953.603 608.111,-953.603Zm121.539,142.747c-0,-13.984 -10.185,-25.338 -22.731,-25.338l-197.616,-0c-12.545,-0 -22.73,11.354 -22.73,25.338l-0,50.677c-0,13.985 10.185,25.339 22.73,25.339l197.616,-0c12.546,-0 22.731,-11.354 22.731,-25.339l-0,-50.677Z" style="fill:#213075;"/><circle cx="1133.86" cy="1308.65" r="501.539" style="fill:#303f82;"/><path d="M1802.36,846.042c22.584,116.065 -35.562,225.177 -129.765,243.507c-94.204,18.33 -189.02,-61.019 -211.603,-177.085c-22.584,-116.065 35.562,-225.177 129.765,-243.506c94.204,-18.33 189.02,61.019 211.603,177.084Z" style="fill:none;stroke:#7b7d88;stroke-width:38.77px;"/><path d="M1455.54,520.795c111.69,38.813 190.359,104.883 175.567,147.451c-14.792,42.567 -117.48,45.615 -229.171,6.802c-111.69,-38.813 -190.359,-104.883 -175.567,-147.451c14.793,-42.567 117.481,-45.615 229.171,-6.802Z" style="fill:none;stroke:#6c6d74;stroke-width:16.26px;"/><path d="M1583.77,670.5c2.307,-0.57 4.638,-1.085 6.991,-1.542c23.51,-4.575 47.058,-3.066 69.512,3.58" style="fill:none;stroke:#7b7d88;stroke-width:38.77px;"/><path d="M1133.86,353.001c60.344,-0 138.651,45.476 218.879,120.972c18.795,17.687 37.696,37.021 56.495,57.805c86.263,95.364 -153.835,-21.119 -153.835,-21.119c-0,-0 3.822,-38.645 -12.64,-49.691c-90.87,-60.973 -193.696,-107.967 -108.899,-107.967Z" style="fill:#213075;"/><path d="M1363.98,1201.65l0,243.255c0,8.282 -6.724,15.006 -15.006,15.006l-430.228,0c-8.282,0 -15.006,-6.724 -15.006,-15.006l0,-243.255c0,-8.282 6.724,-15.006 15.006,-15.006l430.228,-0c8.282,-0 15.006,6.724 15.006,15.006Z" style="fill:#d9dbe2;"/><g><path d="M985.715,1354.99c0,-8.965 0.152,-17.494 0.457,-25.588c0.305,-8.094 0.587,-15.84 0.849,-23.238c0.261,-7.397 0.435,-14.512 0.522,-21.344c0.087,-6.833 -0.131,-13.469 -0.653,-19.909c-0.435,0.261 -0.936,0.696 -1.501,1.305c-0.566,0.61 -1.132,1.219 -1.697,1.828c-0.566,0.609 -1.154,1.153 -1.763,1.632c-0.609,0.479 -1.131,0.718 -1.566,0.718c-0.697,-0 -1.328,-0.283 -1.893,-0.849c-0.566,-0.565 -0.849,-1.283 -0.849,-2.154l0,-0.391c0,-0.087 0.044,-0.218 0.131,-0.392c0.783,-0.957 1.718,-2.48 2.806,-4.569c1.088,-2.089 2.263,-4.178 3.525,-6.267c1.262,-2.088 2.481,-3.938 3.656,-5.548c1.174,-1.61 2.197,-2.415 3.067,-2.415c0.871,-0 1.524,0.217 1.959,0.653c0.435,0.435 0.805,0.957 1.109,1.566c0.305,0.609 0.61,1.262 0.914,1.958c0.305,0.697 0.805,1.262 1.502,1.698c2.959,-1.741 6.179,-3.242 9.66,-4.504c3.481,-1.262 6.985,-2.133 10.509,-2.611c3.525,-0.479 6.941,-0.566 10.248,-0.261c3.308,0.304 6.332,1.109 9.074,2.415c2.741,1.305 5.069,3.176 6.984,5.613c1.915,2.437 3.177,5.483 3.786,9.139c-0.087,4.787 -1.48,9.269 -4.178,13.446c-2.698,4.178 -6.005,7.986 -9.921,11.423c-3.917,3.438 -8.138,6.484 -12.664,9.139c-4.525,2.654 -8.703,4.961 -12.532,6.919c-3.83,1.958 -6.963,3.503 -9.4,4.634c-2.437,1.132 -3.568,1.828 -3.394,2.089l-1.697,43.604c-0,0.696 -0.305,1.196 -0.914,1.501c-0.609,0.304 -1.306,0.435 -2.089,0.392c-0.783,-0.044 -1.567,-0.218 -2.35,-0.523c-0.783,-0.304 -1.349,-0.674 -1.697,-1.109Zm8.747,-53.003c4.438,-1.654 9.051,-3.569 13.838,-5.744c4.787,-2.176 9.269,-4.678 13.447,-7.507c4.177,-2.829 7.854,-6.049 11.031,-9.661c3.177,-3.611 5.331,-7.767 6.462,-12.467c-0.696,-4.961 -2.633,-8.551 -5.809,-10.77c-3.177,-2.22 -6.963,-3.351 -11.358,-3.395c-4.395,-0.043 -9.051,0.871 -13.969,2.742c-4.917,1.871 -9.465,4.46 -13.642,7.768l-0,39.034Z" style="fill:#231f20;fill-rule:nonzero;"/><path d="M1052.95,1247.81c0.522,-0.348 1.066,-0.718 1.632,-1.11c0.565,-0.391 1.153,-0.653 1.762,-0.783c0.609,-0.131 1.153,-0.065 1.632,0.196c0.479,0.261 0.892,0.827 1.24,1.697l0.783,107.703c-0.435,0.87 -1,1.458 -1.697,1.762c-0.696,0.305 -1.392,0.392 -2.088,0.261c-0.697,-0.13 -1.328,-0.413 -1.893,-0.848c-0.566,-0.435 -0.936,-0.958 -1.11,-1.567l-0.261,-107.311Z" style="fill:#231f20;fill-rule:nonzero;"/><path d="M1112.61,1355.38c-1.219,-1.827 -1.98,-4.221 -2.285,-7.18c-0.305,-2.959 -0.479,-6.07 -0.522,-9.334c-0.044,-3.264 -0.044,-6.484 -0,-9.661c0.043,-3.176 -0.196,-5.896 -0.718,-8.159c-4.091,8.964 -7.942,15.949 -11.554,20.953c-3.612,5.004 -6.919,8.573 -9.921,10.705c-3.003,2.132 -5.723,3.09 -8.16,2.872c-2.437,-0.217 -4.504,-1.088 -6.201,-2.611c-1.697,-1.523 -3.024,-3.394 -3.982,-5.613c-0.957,-2.22 -1.479,-4.33 -1.566,-6.332c-0.609,-3.307 -0.631,-7.289 -0.065,-11.945c0.565,-4.657 1.566,-9.465 3.002,-14.426c1.436,-4.961 3.264,-9.813 5.483,-14.556c2.22,-4.743 4.744,-8.856 7.572,-12.337c2.829,-3.481 5.853,-6.071 9.073,-7.768c3.22,-1.697 6.571,-1.98 10.053,-0.848c1.74,-0.174 3.198,-0.109 4.373,0.195c1.175,0.305 2.154,0.936 2.937,1.893c0.784,0.958 1.349,2.285 1.697,3.982c0.349,1.697 0.61,3.851 0.784,6.462c-0.174,8.443 0.065,15.623 0.718,21.541c0.652,5.918 1.414,11.14 2.284,15.666c0.871,4.526 1.719,8.616 2.546,12.271c0.827,3.656 1.327,7.442 1.501,11.358c0,1.393 -0.348,2.459 -1.044,3.199c-0.696,0.739 -1.48,1.218 -2.35,1.436c-0.87,0.217 -1.675,0.152 -2.415,-0.196c-0.74,-0.348 -1.153,-0.87 -1.24,-1.567Zm-7.572,-65.927c-2.089,-2.785 -4.352,-3.96 -6.789,-3.525c-2.437,0.435 -4.852,1.937 -7.245,4.504c-2.394,2.568 -4.678,5.918 -6.854,10.052c-2.176,4.134 -4.047,8.551 -5.614,13.251c-1.566,4.7 -2.719,9.378 -3.459,14.034c-0.74,4.656 -0.892,8.769 -0.457,12.337c1.218,3.917 2.698,6.266 4.439,7.05c1.74,0.783 3.611,0.5 5.613,-0.849c2.002,-1.349 4.047,-3.503 6.136,-6.462c2.089,-2.959 4.091,-6.158 6.005,-9.595c1.915,-3.438 3.634,-6.876 5.157,-10.314c1.523,-3.438 2.763,-6.331 3.721,-8.681l-0.653,-21.802Z" style="fill:#231f20;fill-rule:nonzero;"/><path d="M1152.69,1356.82l-28.851,-65.666c-0.696,-1.044 -0.87,-2.11 -0.522,-3.198c0.348,-1.088 0.957,-1.937 1.827,-2.546c0.871,-0.609 1.893,-0.849 3.068,-0.718c1.175,0.131 2.241,0.849 3.199,2.154l24.021,57.442l11.358,-64.883c0.522,-0.261 1.153,-0.479 1.893,-0.653c0.739,-0.174 1.479,-0.218 2.219,-0.131c0.74,0.088 1.414,0.349 2.023,0.784c0.61,0.435 1.001,1.131 1.175,2.089c-0.435,3.481 -1.088,7.92 -1.958,13.316c-0.87,5.396 -1.828,10.944 -2.872,16.645c-1.044,5.7 -2.067,11.14 -3.068,16.318c-1.001,5.179 -1.762,9.291 -2.285,12.337c-0.348,1.828 -0.783,4.286 -1.305,7.376c-0.522,3.09 -1.11,6.462 -1.762,10.118c-0.653,3.655 -1.349,7.463 -2.089,11.423c-0.74,3.96 -1.436,7.767 -2.089,11.423c-0.653,3.655 -1.306,6.984 -1.958,9.987c-0.653,3.002 -1.197,5.417 -1.632,7.245c-0.174,1.045 -0.696,1.828 -1.567,2.35c-0.87,0.522 -1.827,0.74 -2.872,0.653c-1.044,-0.087 -2.023,-0.435 -2.937,-1.045c-0.914,-0.609 -1.414,-1.479 -1.501,-2.611l8.485,-40.209Z" style="fill:#231f20;fill-rule:nonzero;"/><path d="M1183.63,1321.83c-0.609,0.522 -1.675,0.718 -3.198,0.588c-1.523,-0.131 -2.916,-0.457 -4.178,-0.979c-1.262,-0.523 -2.11,-1.241 -2.545,-2.155c-0.436,-0.913 0.087,-1.98 1.566,-3.198c0.609,-0.522 1.284,-0.892 2.024,-1.11c0.74,-0.217 1.479,-0.435 2.219,-0.652c0.74,-0.218 1.349,-0.544 1.828,-0.979c0.478,-0.436 0.761,-1.132 0.848,-2.089c0.087,-3.917 0.414,-7.92 0.979,-12.011c0.566,-4.09 1.632,-7.746 3.199,-10.966c1.566,-3.22 3.808,-5.788 6.723,-7.702c2.916,-1.915 6.767,-2.655 11.554,-2.22c1.74,0 3.699,0.414 5.874,1.241c2.176,0.826 4.265,1.914 6.267,3.263c2.002,1.349 3.742,2.959 5.222,4.831c1.479,1.871 2.393,3.894 2.741,6.07c0.61,0.87 0.261,1.958 -1.044,3.264c-1.306,1.305 -3.133,2.763 -5.483,4.373c-2.35,1.61 -5.005,3.242 -7.964,4.896c-2.959,1.653 -5.809,3.22 -8.551,4.7c-2.741,1.479 -5.156,2.785 -7.245,3.916c-2.089,1.132 -3.438,1.915 -4.047,2.35c0.522,3.394 1.088,6.963 1.697,10.705c0.609,3.742 1.48,7.18 2.611,10.313c1.131,3.134 2.546,5.723 4.243,7.768c1.697,2.045 3.851,3.068 6.462,3.068c3.829,0.261 7.115,-0.305 9.857,-1.697c2.741,-1.393 5.026,-3.22 6.853,-5.483c1.828,-2.263 3.286,-4.744 4.374,-7.442c1.088,-2.698 1.914,-5.265 2.48,-7.702c0.566,-2.437 0.958,-4.504 1.175,-6.201c0.218,-1.697 0.413,-2.633 0.588,-2.807c0.957,-0.522 2.045,-0.544 3.263,-0.065c1.219,0.479 1.915,1.762 2.089,3.851c0.087,3.394 -0.653,7.267 -2.219,11.619c-1.567,4.352 -3.721,8.355 -6.462,12.01c-2.742,3.656 -6.006,6.593 -9.792,8.813c-3.786,2.219 -7.811,2.98 -12.075,2.284c-4.439,-0.087 -7.964,-1.371 -10.575,-3.851c-2.611,-2.48 -4.678,-5.483 -6.201,-9.008c-1.523,-3.525 -2.633,-7.245 -3.329,-11.162c-0.696,-3.916 -1.305,-7.398 -1.828,-10.444Zm34.204,-28.068c-2.785,-3.829 -5.613,-6.266 -8.485,-7.311c-2.873,-1.044 -5.832,-1.349 -8.878,-0.913c-1.827,0.261 -3.438,1.109 -4.83,2.545c-1.393,1.436 -2.524,3.264 -3.394,5.483c-0.871,2.22 -1.48,4.7 -1.828,7.442c-0.348,2.741 -0.392,5.548 -0.131,8.42l27.546,-15.666Z" style="fill:#231f20;fill-rule:nonzero;"/><path d="M1241.46,1354.21c-0.262,-12.01 -0.479,-22.193 -0.653,-30.548c-0.174,-8.355 -0.305,-15.274 -0.392,-20.757c-0.087,-5.483 -0.152,-9.77 -0.196,-12.859c-0.043,-3.09 -0.087,-5.375 -0.13,-6.854c-0.044,-1.48 -0.065,-2.372 -0.065,-2.677l-0,-0.587c0.087,-0.783 0.478,-1.436 1.174,-1.958c0.697,-0.522 1.458,-0.849 2.285,-0.979c0.827,-0.131 1.632,-0.022 2.415,0.326c0.784,0.348 1.349,0.914 1.697,1.697l0.392,30.026c1.306,-6.005 3.416,-11.009 6.332,-15.013c2.915,-4.003 6.201,-7.158 9.856,-9.465c3.655,-2.306 7.463,-3.807 11.423,-4.503c3.96,-0.697 7.637,-0.74 11.032,-0.131c1.131,0.261 1.98,0.74 2.545,1.436c0.566,0.696 0.871,1.458 0.914,2.285c0.044,0.826 -0.174,1.61 -0.653,2.349c-0.478,0.74 -1.109,1.284 -1.893,1.632c-3.916,-0.261 -7.593,0.066 -11.031,0.979c-3.438,0.914 -6.571,2.263 -9.4,4.047c-2.828,1.785 -5.309,3.895 -7.441,6.332c-2.132,2.437 -3.808,5.004 -5.026,7.703c-1.828,3.916 -3.068,8.028 -3.721,12.336c-0.652,4.309 -1.044,8.595 -1.175,12.859c-0.13,4.265 -0.13,8.312 0,12.142c0.131,3.829 0.153,7.18 0.066,10.052c-0.087,0.957 -0.501,1.675 -1.24,2.154c-0.74,0.479 -1.567,0.74 -2.481,0.783c-0.914,0.044 -1.828,-0.174 -2.741,-0.653c-0.914,-0.478 -1.545,-1.196 -1.893,-2.154Z" style="fill:#231f20;fill-rule:nonzero;"/></g></g></svg>