<?xml version="1.0" encoding="UTF-8" standalone="no"?><!DOCTYPE svg PUBLIC "-//W3C//DTD SVG 1.1//EN" "http://www.w3.org/Graphics/SVG/1.1/DTD/svg11.dtd"><svg width="100%" height="100%" viewBox="0 0 2268 2268" version="1.1" xmlns="http://www.w3.org/2000/svg" xmlns:xlink="http://www.w3.org/1999/xlink" xml:space="preserve" xmlns:serif="http://www.serif.com/" style="fill-rule:evenodd;clip-rule:evenodd;stroke-linecap:round;stroke-linejoin:round;stroke-miterlimit:1.5;"><g id="Player_Tag"><path d="M1133.86,353.001c202.704,-0 608.112,513.155 608.112,953.603c-0,335.626 -272.486,608.112 -608.112,608.112c-335.626,-0 -608.111,-272.486 -608.111,-608.112c-0,-440.448 405.407,-953.603 608.111,-953.603Zm121.539,142.747c-0,-13.984 -10.185,-25.338 -22.731,-25.338l-197.616,-0c-12.545,-0 -22.73,11.354 -22.73,25.338l-0,50.677c-0,13.985 10.185,25.339 22.73,25.339l197.616,-0c12.546,-0 22.731,-11.354 22.731,-25.339l-0,-50.677Z" style="fill:#213075;"/><circle cx="1133.86" cy="1308.65" r="501.539" style="fill:#303f82;"/><path d="M1802.36,846.042c22.584,116.065 -35.562,225.177 -129.765,243.507c-94.204,18.33 -189.02,-61.019 -211.603,-177.085c-22.584,-116.065 35.562,-225.177 129.765,-243.506c94.204,-18.33 189.02,61.019 211.603,177.084Z" style="fill:none;stroke:#7b7d88;stroke-width:38.77px;"/><path d="M1455.54,520.795c111.69,38.813 190.359,104.883 175.567,147.451c-14.792,42.567 -117.48,45.615 -229.171,6.802c-111.69,-38.813 -190.359,-104.883 -175.567,-147.451c14.793,-42.567 117.481,-45.615 229.171,-6.802Z" style="fill:none;stroke:#6c6d74;stroke-width:16.26px;"/><path d="M1583.77,670.5c2.307,-0.57 4.638,-1.085 6.991,-1.542c23.51,-4.575 47.058,-3.066 69.512,3.58" style="fill:none;stroke:#7b7d88;stroke-width:38.77px;"/><path d="M1133.86,353.001c60.344,-0 138.651,45.476 218.879,120.972c18.795,17.687 37.696,37.021 56.495,57.805c86.263,95.364 -153.835,-21.119 -153.835,-21.119c-0,-0 3.822,-38.645 -12.64,-49.691c-90.87,-60.973 -193.696,-107.967 -108.899,-107.967Z" style="fill:#213075;"/><path d="M1363.98,1201.65l0,243.255c0,8.282 -6.724,15.006 -15.006,15.006l-430.228,0c-8.282,0 -15.006,-6.724 -15.006,-15.006l0,-243.255c0,-8.282 6.724,-15.006 15.006,-15.006l430.228,-0c8.282,-0 15.006,6.724 15.006,15.006Z" style="fill:#d9dbe2;"/><g transform="matrix(1.89791,0,0,1.89791,-6793.83,-9109.39)"><text x="4101.55px" y="5481.85px" style="font-family:'ShadowsIntoLightTwo-Regular', 'Shadows Into Light Two';font-size:50.582px;fill:#231f20;">Pla<tspan x="4156.33px " y="5481.85px ">y</tspan>er 1</text><g transform="matrix(50.5819,0,0,50.5819,4227.88,5550.87)"></g><text x="4126.91px" y="5550.88px" style="font-family:'ShadowsIntoLightTwo-Regular', 'Shadows Into Light Two';font-size:50.582px;fill:#231f20;">(Red)</text></g></g></svg>