<?xml version="1.0" encoding="UTF-8" standalone="no"?><!DOCTYPE svg PUBLIC "-//W3C//DTD SVG 1.1//EN" "http://www.w3.org/Graphics/SVG/1.1/DTD/svg11.dtd"><svg width="100%" height="100%" viewBox="0 0 2268 2268" version="1.1" xmlns="http://www.w3.org/2000/svg" xmlns:xlink="http://www.w3.org/1999/xlink" xml:space="preserve" xmlns:serif="http://www.serif.com/" style="fill-rule:evenodd;clip-rule:evenodd;stroke-linecap:round;stroke-linejoin:round;stroke-miterlimit:1.5;"><g id="Player_Tag"><path d="M1133.86,353.001c202.704,-0 608.112,513.155 608.112,953.603c-0,335.626 -272.486,608.112 -608.112,608.112c-335.626,-0 -608.111,-272.486 -608.111,-608.112c-0,-440.448 405.407,-953.603 608.111,-953.603Zm121.539,142.747c-0,-13.984 -10.185,-25.338 -22.731,-25.338l-197.616,-0c-12.545,-0 -22.73,11.354 -22.73,25.338l-0,50.677c-0,13.985 10.185,25.339 22.73,25.339l197.616,-0c12.546,-0 22.731,-11.354 22.731,-25.339l-0,-50.677Z" style="fill:#213075;"/><circle cx="1133.86" cy="1308.65" r="501.539" style="fill:#303f82;"/><path d="M1802.36,846.042c22.584,116.065 -35.562,225.177 -129.765,243.507c-94.204,18.33 -189.02,-61.019 -211.603,-177.085c-22.584,-116.065 35.562,-225.177 129.765,-243.506c94.204,-18.33 189.02,61.019 211.603,177.084Z" style="fill:none;stroke:#7b7d88;stroke-width:38.77px;"/><path d="M1455.54,520.795c111.69,38.813 190.359,104.883 175.567,147.451c-14.792,42.567 -117.48,45.615 -229.171,6.802c-111.69,-38.813 -190.359,-104.883 -175.567,-147.451c14.793,-42.567 117.481,-45.615 229.171,-6.802Z" style="fill:none;stroke:#6c6d74;stroke-width:16.26px;"/><path d="M1583.77,670.5c2.307,-0.57 4.638,-1.085 6.991,-1.542c23.51,-4.575 47.058,-3.066 69.512,3.58" style="fill:none;stroke:#7b7d88;stroke-width:38.77px;"/><path d="M1133.86,353.001c60.344,-0 138.651,45.476 218.879,120.972c18.795,17.687 37.696,37.021 56.495,57.805c86.263,95.364 -153.835,-21.119 -153.835,-21.119c-0,-0 3.822,-38.645 -12.64,-49.691c-90.87,-60.973 -193.696,-107.967 -108.899,-107.967Z" style="fill:#213075;"/><path d="M1363.98,1201.65l0,243.255c0,8.282 -6.724,15.006 -15.006,15.006l-430.228,0c-8.282,0 -15.006,-6.724 -15.006,-15.006l0,-243.255c0,-8.282 6.724,-15.006 15.006,-15.006l430.228,-0c8.282,-0 15.006,6.724 15.006,15.006Z" style="fill:#d9dbe2;"/><g><path d="M1163.52,1248.33c3.725,-0 6.629,1.205 8.711,3.615c2.081,2.411 3.232,5.04 3.451,7.889c0.219,2.849 -0.548,5.478 -2.301,7.889c-1.753,2.41 -4.492,3.725 -8.217,3.944c-4.602,0 -7.999,-1.205 -10.19,-3.615c-2.192,-2.411 -3.287,-5.04 -3.287,-7.889c-0,-2.849 0.986,-5.479 2.958,-7.889c1.972,-2.41 4.931,-3.725 8.875,-3.944Zm-63.439,-0c3.725,-0 6.629,1.205 8.71,3.615c2.082,2.411 3.233,5.04 3.452,7.889c0.219,2.849 -0.548,5.478 -2.301,7.889c-1.753,2.41 -4.492,3.725 -8.218,3.944c-4.601,0 -7.998,-1.205 -10.189,-3.615c-2.192,-2.411 -3.287,-5.04 -3.287,-7.889c-0,-2.849 0.986,-5.479 2.958,-7.889c1.972,-2.41 4.93,-3.725 8.875,-3.944Z" style="fill:#231f20;fill-rule:nonzero;"/><path d="M1102.38,1292.7c19.941,-1.095 38.786,0.274 56.536,4.109c17.75,3.835 34.569,9.477 50.456,16.928c15.887,7.451 31.062,16.325 45.525,26.625c14.463,10.299 28.268,21.365 41.416,33.199c0,4.382 -1.205,7.121 -3.616,8.217c-2.41,1.096 -5.916,1.534 -10.518,1.315c-13.148,-10.957 -26.46,-21.201 -39.937,-30.734c-13.477,-9.532 -27.501,-17.64 -42.074,-24.324c-14.572,-6.683 -29.966,-11.778 -46.182,-15.284c-16.216,-3.506 -33.637,-4.602 -52.264,-3.287c-11.614,-0.438 -23.392,1.205 -35.335,4.93c-11.943,3.726 -23.119,9.204 -33.527,16.435c-10.409,7.232 -19.558,16.107 -27.447,26.625c-7.889,10.519 -13.586,22.242 -17.092,35.171c-1.534,0.658 -3.287,1.26 -5.26,1.808c-1.972,0.548 -3.78,0.493 -5.423,-0.164c-1.644,-0.658 -2.958,-2.027 -3.945,-4.109c-0.986,-2.082 -1.26,-5.314 -0.821,-9.697c3.506,-12.929 9.861,-24.817 19.064,-35.664c9.204,-10.847 19.832,-20.16 31.884,-27.939c12.053,-7.78 24.982,-13.861 38.787,-18.243c13.805,-4.383 27.063,-6.355 39.773,-5.917Z" style="fill:#231f20;fill-rule:nonzero;"/></g></g></svg>